<svg aria-hidden="true" style="position: absolute; width: 0; height: 0; overflow: hidden;" version="1.1" xmlns="http://www.w3.org/2000/svg" xmlns:xlink="http://www.w3.org/1999/xlink">
<defs>
<symbol id="icon-pinterest" viewBox="0 0 32 32">
<path fill="#bd081c" style="fill: var(--color1, #bd081c)" d="M16.023 0c-8.828 0-15.984 7.156-15.984 15.983 0 6.772 4.211 12.556 10.157 14.883-0.14-1.265-0.265-3.204 0.055-4.585 0.292-1.249 1.875-7.943 1.875-7.943s-0.479-0.96-0.479-2.375c0-2.217 1.289-3.881 2.891-3.881 1.365 0 2.024 1.025 2.024 2.251 0 1.372-0.871 3.423-1.323 5.323-0.38 1.591 0.8 2.887 2.367 2.887 2.837 0 5.024-2.993 5.024-7.316 0-3.815-2.751-6.492-6.677-6.492-4.547 0-7.212 3.416-7.212 6.932 0 1.377 0.525 2.857 1.185 3.655 0.132 0.16 0.149 0.3 0.113 0.46-0.12 0.5-0.391 1.599-0.445 1.817-0.071 0.3-0.229 0.361-0.535 0.22-1.993-0.92-3.244-3.837-3.244-6.195 0-5.035 3.664-9.669 10.56-9.669 5.544 0 9.856 3.956 9.856 9.231 0 5.513-3.476 9.949-8.311 9.949-1.619 0-3.139-0.839-3.677-1.839l-0.999 3.797c-0.359 1.393-1.339 3.136-1.997 4.195 1.497 0.46 3.075 0.713 4.733 0.713 8.809 0 15.98-7.153 15.98-15.983 0-8.831-7.171-15.983-15.98-15.983z"></path>
</symbol>
<symbol id="icon-twitter" viewBox="0 0 32 32">
<path fill="#1da1f2" style="fill: var(--color2, #1da1f2)" d="M31.939 6.092c-1.18 0.519-2.44 0.872-3.767 1.033 1.352-0.815 2.392-2.099 2.884-3.631-1.268 0.74-2.673 1.279-4.169 1.579-1.195-1.279-2.897-2.079-4.788-2.079-3.623 0-6.56 2.937-6.56 6.556 0 0.52 0.060 1.020 0.169 1.499-5.453-0.257-10.287-2.876-13.521-6.835-0.569 0.963-0.888 2.081-0.888 3.3 0 2.28 1.16 4.284 2.917 5.461-1.076-0.035-2.088-0.331-2.971-0.821v0.081c0 3.18 2.257 5.832 5.261 6.436-0.551 0.148-1.132 0.228-1.728 0.228-0.419 0-0.82-0.040-1.221-0.115 0.841 2.604 3.26 4.503 6.139 4.556-2.24 1.759-5.079 2.807-8.136 2.807-0.52 0-1.039-0.031-1.56-0.089 2.919 1.859 6.357 2.945 10.076 2.945 12.072 0 18.665-9.995 18.665-18.648 0-0.279 0-0.56-0.020-0.84 1.281-0.919 2.4-2.080 3.28-3.397z"></path>
</symbol>
<symbol id="icon-chevron-thin-down" viewBox="0 0 40 40">
<path d="M34.836 12.218c0.544-0.536 1.418-0.536 1.958 0s0.542 1.402 0 1.938l-15.816 15.66c-0.54 0.536-1.414 0.536-1.958 0l-15.816-15.66c-0.54-0.536-0.54-1.402 0-1.938 0.542-0.536 1.418-0.536 1.958 0l14.838 14.282 14.836-14.282z"></path>
</symbol>
<symbol id="icon-facebook" viewBox="0 0 40 40">
<path d="M20 0.8c-10.604 0-19.2 8.596-19.2 19.2s8.596 19.2 19.2 19.2 19.2-8.596 19.2-19.2-8.596-19.2-19.2-19.2zM24.548 14.068h-2.886c-0.342 0-0.722 0.45-0.722 1.048v2.084h3.61l-0.546 2.972h-3.064v8.922h-3.406v-8.922h-3.090v-2.972h3.090v-1.748c0-2.508 1.74-4.546 4.128-4.546h2.886v3.162z"></path>
</symbol>
<symbol id="icon-google" viewBox="0 0 40 40">
<path d="M3.978 11.178c0 2.988 0.998 5.144 2.964 6.41 1.612 1.040 3.48 1.196 4.452 1.196 0.236 0 0.426-0.012 0.558-0.020 0 0-0.308 2.008 1.18 3.992h-0.068c-2.578 0-10.986 0.538-10.986 7.454 0 7.032 7.722 7.39 9.272 7.39 0.122 0 0.194-0.004 0.194-0.004 0.016 0 0.126 0.004 0.316 0.004 0.994 0 3.564-0.124 5.95-1.286 3.096-1.5 4.666-4.118 4.666-7.77 0-3.528-2.392-5.628-4.138-7.164-1.066-0.938-1.988-1.746-1.988-2.532 0-0.8 0.674-1.402 1.524-2.164 1.378-1.23 2.678-2.984 2.678-6.3 0-2.914-0.378-4.872-2.708-6.114 0.242-0.124 1.102-0.214 1.526-0.274 1.262-0.172 3.108-0.368 3.108-1.398v-0.198h-9.198c-0.092 0.004-9.302 0.344-9.302 8.778zM18.826 29.204c0.176 2.812-2.23 4.886-5.844 5.148-3.67 0.27-6.69-1.382-6.866-4.192-0.086-1.352 0.508-2.672 1.67-3.726 1.178-1.066 2.796-1.726 4.556-1.856 0.208-0.012 0.414-0.024 0.62-0.024 3.398 0.002 5.698 1.998 5.864 4.65zM16.424 9.252c0.902 3.176-0.46 6.492-2.632 7.106-0.25 0.070-0.506 0.104-0.768 0.104-1.988 0-3.958-2.012-4.69-4.786-0.408-1.552-0.374-2.916 0.094-4.224 0.458-1.29 1.286-2.156 2.326-2.45 0.25-0.070 0.508-0.106 0.77-0.106 2.4 0 3.944 0.996 4.9 4.356zM32 16v-6h-4v6h-6v4h6v6h4v-6h6v-4h-6z"></path>
</symbol>
</defs>
</svg>
