<svg aria-hidden="true" style="position: absolute; width: 0; height: 0; overflow: hidden;" version="1.1" xmlns="http://www.w3.org/2000/svg" xmlns:xlink="http://www.w3.org/1999/xlink">
<defs>
<symbol id="icon-chevron-thin-down" viewBox="0 0 40 40">
<path d="M34.836 12.218c0.544-0.536 1.418-0.536 1.958 0s0.542 1.402 0 1.938l-15.816 15.66c-0.54 0.536-1.414 0.536-1.958 0l-15.816-15.66c-0.54-0.536-0.54-1.402 0-1.938 0.542-0.536 1.418-0.536 1.958 0l14.838 14.282 14.836-14.282z"></path>
</symbol>
<symbol id="icon-google" viewBox="0 0 40 40">
<path d="M3.978 11.178c0 2.988 0.998 5.144 2.964 6.41 1.612 1.040 3.48 1.196 4.452 1.196 0.236 0 0.426-0.012 0.558-0.020 0 0-0.308 2.008 1.18 3.992h-0.068c-2.578 0-10.986 0.538-10.986 7.454 0 7.032 7.722 7.39 9.272 7.39 0.122 0 0.194-0.004 0.194-0.004 0.016 0 0.126 0.004 0.316 0.004 0.994 0 3.564-0.124 5.95-1.286 3.096-1.5 4.666-4.118 4.666-7.77 0-3.528-2.392-5.628-4.138-7.164-1.066-0.938-1.988-1.746-1.988-2.532 0-0.8 0.674-1.402 1.524-2.164 1.378-1.23 2.678-2.984 2.678-6.3 0-2.914-0.378-4.872-2.708-6.114 0.242-0.124 1.102-0.214 1.526-0.274 1.262-0.172 3.108-0.368 3.108-1.398v-0.198h-9.198c-0.092 0.004-9.302 0.344-9.302 8.778zM18.826 29.204c0.176 2.812-2.23 4.886-5.844 5.148-3.67 0.27-6.69-1.382-6.866-4.192-0.086-1.352 0.508-2.672 1.67-3.726 1.178-1.066 2.796-1.726 4.556-1.856 0.208-0.012 0.414-0.024 0.62-0.024 3.398 0.002 5.698 1.998 5.864 4.65zM16.424 9.252c0.902 3.176-0.46 6.492-2.632 7.106-0.25 0.070-0.506 0.104-0.768 0.104-1.988 0-3.958-2.012-4.69-4.786-0.408-1.552-0.374-2.916 0.094-4.224 0.458-1.29 1.286-2.156 2.326-2.45 0.25-0.070 0.508-0.106 0.77-0.106 2.4 0 3.944 0.996 4.9 4.356zM32 16v-6h-4v6h-6v4h6v6h4v-6h6v-4h-6z"></path>
</symbol>
<symbol id="icon-pinterest" viewBox="0 0 40 40">
<path d="M17.234 26.454c-1.052 5.508-2.334 10.788-6.136 13.546-1.172-8.324 1.722-14.574 3.068-21.21-2.294-3.86 0.276-11.624 5.11-9.71 5.95 2.352-5.152 14.344 2.3 15.844 7.782 1.562 10.958-13.5 6.132-18.398-6.97-7.076-20.292-0.166-18.652 9.964 0.398 2.476 2.956 3.226 1.022 6.644-4.462-0.988-5.794-4.508-5.622-9.2 0.276-7.68 6.898-13.054 13.542-13.8 8.402-0.942 16.288 3.086 17.378 10.988 1.226 8.922-3.792 18.586-12.778 17.89-2.436-0.19-3.456-1.398-5.364-2.558z"></path>
</symbol>
<symbol id="icon-twitter" viewBox="0 0 40 40">
<path d="M34.632 12.492c0.016 0.324 0.022 0.652 0.022 0.976 0 9.98-7.594 21.484-21.48 21.484-4.266 0-8.232-1.25-11.574-3.394 0.592 0.070 1.192 0.106 1.8 0.106 3.54 0 6.794-1.208 9.376-3.23-3.302-0.062-6.092-2.242-7.052-5.242 0.46 0.086 0.934 0.132 1.42 0.132 0.69 0 1.358-0.090 1.99-0.262-3.454-0.696-6.056-3.746-6.056-7.406 0-0.032 0-0.062 0-0.094 1.018 0.566 2.184 0.906 3.42 0.946-2.026-1.356-3.36-3.664-3.36-6.286 0-1.382 0.372-2.68 1.024-3.796 3.722 4.57 9.288 7.574 15.562 7.89-0.128-0.554-0.194-1.128-0.194-1.722 0-4.168 3.378-7.546 7.548-7.546 2.172 0 4.134 0.914 5.512 2.382 1.718-0.34 3.334-0.968 4.794-1.832-0.564 1.762-1.762 3.242-3.32 4.176 1.528-0.184 2.98-0.586 4.336-1.188-1.012 1.516-2.292 2.844-3.768 3.906z"></path>
</symbol>
<symbol id="icon-facebook1" viewBox="0 0 32 32">
<path d="M19 6h5v-6h-5c-3.86 0-7 3.14-7 7v3h-4v6h4v16h6v-16h5l1-6h-6v-3c0-0.542 0.458-1 1-1z"></path>
</symbol>
</defs>
</svg>
